<svg xmlns="http://www.w3.org/2000/svg" xmlns:xlink="http://www.w3.org/1999/xlink" xmlns:inkscape="http://www.inkscape.org/namespaces/inkscape" version="1.1" width="750" height="300" viewBox="0 0 750 300">
<g>
<path d="M0 0H750V300H0Z" fill="#ffffff"/>
<path d="M54.75 49.5H368.25V250.5H54.75Z" fill="#ffffff"/>
<path d="M424.5 49.5H738V250.5H424.5Z" fill="#ffffff"/>
<path stroke-width=".75" stroke-linecap="butt" stroke-miterlimit="1.154701" stroke-linejoin="miter" fill="none" stroke="#000000" stroke-opacity=".12" d="M83.25 250.5V49.5"/>
<path stroke-width=".75" stroke-linecap="butt" stroke-miterlimit="1.154701" stroke-linejoin="miter" fill="none" stroke="#000000" stroke-opacity=".12" d="M140.25 250.5V49.5"/>
<path stroke-width=".75" stroke-linecap="butt" stroke-miterlimit="1.154701" stroke-linejoin="miter" fill="none" stroke="#000000" stroke-opacity=".12" d="M197.25 250.5V49.5"/>
<path stroke-width=".75" stroke-linecap="butt" stroke-miterlimit="1.154701" stroke-linejoin="miter" fill="none" stroke="#000000" stroke-opacity=".12" d="M254.25 250.5V49.5"/>
<path stroke-width=".75" stroke-linecap="butt" stroke-miterlimit="1.154701" stroke-linejoin="miter" fill="none" stroke="#000000" stroke-opacity=".12" d="M311.25 250.5V49.5"/>
<path stroke-width=".75" stroke-linecap="butt" stroke-miterlimit="1.154701" stroke-linejoin="miter" fill="none" stroke="#000000" stroke-opacity=".12" d="M368.25 250.5V49.5"/>
<path stroke-width=".75" stroke-linecap="butt" stroke-miterlimit="1.154701" stroke-linejoin="miter" fill="none" stroke="#000000" stroke-opacity=".12" d="M54.75 250.5H368.25"/>
<path stroke-width=".75" stroke-linecap="butt" stroke-miterlimit="1.154701" stroke-linejoin="miter" fill="none" stroke="#000000" stroke-opacity=".12" d="M54.75 150H368.25"/>
<path stroke-width=".75" stroke-linecap="butt" stroke-miterlimit="1.154701" stroke-linejoin="miter" fill="none" stroke="#000000" stroke-opacity=".12" d="M54.75 49.5H368.25"/>
<path stroke-width=".75" stroke-linecap="butt" stroke-miterlimit="1.154701" stroke-linejoin="miter" fill="none" stroke="#000000" stroke-opacity=".12" d="M446.895 250.5V49.5"/>
<path stroke-width=".75" stroke-linecap="butt" stroke-miterlimit="1.154701" stroke-linejoin="miter" fill="none" stroke="#000000" stroke-opacity=".12" d="M491.68 250.5V49.5"/>
<path stroke-width=".75" stroke-linecap="butt" stroke-miterlimit="1.154701" stroke-linejoin="miter" fill="none" stroke="#000000" stroke-opacity=".12" d="M536.465 250.5V49.5"/>
<path stroke-width=".75" stroke-linecap="butt" stroke-miterlimit="1.154701" stroke-linejoin="miter" fill="none" stroke="#000000" stroke-opacity=".12" d="M581.25 250.5V49.5"/>
<path stroke-width=".75" stroke-linecap="butt" stroke-miterlimit="1.154701" stroke-linejoin="miter" fill="none" stroke="#000000" stroke-opacity=".12" d="M626.035 250.5V49.5"/>
<path stroke-width=".75" stroke-linecap="butt" stroke-miterlimit="1.154701" stroke-linejoin="miter" fill="none" stroke="#000000" stroke-opacity=".12" d="M670.82 250.5V49.5"/>
<path stroke-width=".75" stroke-linecap="butt" stroke-miterlimit="1.154701" stroke-linejoin="miter" fill="none" stroke="#000000" stroke-opacity=".12" d="M715.605 250.5V49.5"/>
<path stroke-width=".75" stroke-linecap="butt" stroke-miterlimit="1.154701" stroke-linejoin="miter" fill="none" stroke="#000000" stroke-opacity=".12" d="M424.5 250.5H738"/>
<path stroke-width=".75" stroke-linecap="butt" stroke-miterlimit="1.154701" stroke-linejoin="miter" fill="none" stroke="#000000" stroke-opacity=".12" d="M424.5 150H738"/>
<path stroke-width=".75" stroke-linecap="butt" stroke-miterlimit="1.154701" stroke-linejoin="miter" fill="none" stroke="#000000" stroke-opacity=".12" d="M424.5 49.5H738"/>
<text xml:space="preserve" transform="matrix(1 0 0 .99999997 0 0)" font-size="15.000001" font-family="NewCMMath"><tspan y="285.84004" x="194.565">&#x0394;</tspan></text>
<text xml:space="preserve" transform="matrix(1 0 0 .99999997 0 0)" font-size="15.000001" font-family="NewCM10" font-style="italic"><tspan y="285.84004" x="207.06">s</tspan></text>
<text xml:space="preserve" transform="matrix(1 0 0 .99999997 0 0)" font-size="15.000001" font-family="NewCMMath"><tspan y="285.84004" x="213.19499">.</tspan></text>
<text xml:space="preserve" transform="matrix(1 0 0 .99999997 0 0)" font-size="15.000001" font-family="NewCM10" font-style="italic"><tspan y="285.84004" x="217.36499">c</tspan></text>
<text xml:space="preserve" transform="matrix(1 0 0 .99999997 0 0)" font-size="15.000001" font-family="NewCMMath"><tspan y="285.84004" x="224.26499">.</tspan><tspan y="268.59004" x="79.49999 136.5 193.5 250.5 307.5 360.75 368.25">0246810</tspan></text>
<text xml:space="preserve" transform="matrix(.00000005960467 -1 1.0000001 .00000005960467 0 0)" font-size="14.999999" font-family="NewCM10" font-style="italic"><tspan y="23.28001" x="-186.2925">t</tspan></text>
<text xml:space="preserve" transform="matrix(.00000005960467 -1 1.0000001 .00000005960467 0 0)" font-size="14.999999" font-family="NewCMMath"><tspan y="23.28001" x="-181.3125">.</tspan></text>
<text xml:space="preserve" transform="matrix(.00000005960467 -1 1.0000001 .00000005960467 0 0)" font-size="14.999999" font-family="NewCM10" font-style="italic"><tspan y="23.28001" x="-177.1425">c</tspan></text>
<text xml:space="preserve" transform="matrix(.00000005960467 -1 1.0000001 .00000005960467 0 0)" font-size="14.999999" font-family="NewCMMath"><tspan y="23.280009" x="-170.2425 -166.0725 -161.0925">. (</tspan><tspan y="23.28001" x="-155.2575 -145.4625">Fl</tspan><tspan y="23.280009" x="-141.2925 -133.79251">op</tspan><tspan y="23.28001" x="-125.45251 -119.5425">s)</tspan></text>
<text xml:space="preserve" transform="matrix(1 0 0 .99999997 0 0)" font-size="15.000001" font-family="NewCMMath"><tspan y="255.90453" x="30.750002">2</tspan></text>
<text xml:space="preserve" transform="matrix(1 0 0 1 0 0)" font-size="9" font-family="NewCMMath"><tspan y="249.4395" x="38.250005 42.750005">35</tspan></text>
<text xml:space="preserve" transform="matrix(1 0 0 .99999997 0 0)" font-size="15.000001" font-family="NewCMMath"><tspan y="155.40453" x="30.750002">2</tspan></text>
<text xml:space="preserve" transform="matrix(1 0 0 1 0 0)" font-size="9" font-family="NewCMMath"><tspan y="148.9395" x="38.250005 42.750005">40</tspan></text>
<text xml:space="preserve" transform="matrix(1 0 0 .99999997 0 0)" font-size="15.000001" font-family="NewCMMath"><tspan y="54.904516" x="30.750002">2</tspan></text>
<text xml:space="preserve" transform="matrix(1 0 0 1 0 0)" font-size="9" font-family="NewCMMath"><tspan y="48.439508" x="38.250005 42.750005">45</tspan></text>
<path stroke-width="1.5" stroke-linecap="butt" stroke-miterlimit="2" stroke-linejoin="miter" fill="none" stroke="#e36d44" d="M83.25 157.926 168.75 178.145 225.75 214.992 282.75 231.457 339.75 190.945"/>
<path d="M79.699 154.375H86.800998V161.48H79.699Z" fill="#e36d44"/>
<path stroke-width=".375" stroke-linecap="butt" stroke-miterlimit="2" stroke-linejoin="miter" fill="none" stroke="#000000" d="M79.699 154.375H86.800998V161.48H79.699Z"/>
<path d="M165.199 174.59H172.30101V181.69499H165.199Z" fill="#e36d44"/>
<path stroke-width=".375" stroke-linecap="butt" stroke-miterlimit="2" stroke-linejoin="miter" fill="none" stroke="#000000" d="M165.199 174.59H172.30101V181.69499H165.199Z"/>
<path d="M222.199 211.438H229.30101V218.543H222.199Z" fill="#e36d44"/>
<path stroke-width=".375" stroke-linecap="butt" stroke-miterlimit="2" stroke-linejoin="miter" fill="none" stroke="#000000" d="M222.199 211.438H229.30101V218.543H222.199Z"/>
<path d="M279.199 227.906H286.301V235.00801H279.199Z" fill="#e36d44"/>
<path stroke-width=".375" stroke-linecap="butt" stroke-miterlimit="2" stroke-linejoin="miter" fill="none" stroke="#000000" d="M279.199 227.906H286.301V235.00801H279.199Z"/>
<path d="M336.199 187.395H343.301V194.5H336.199Z" fill="#e36d44"/>
<path stroke-width=".375" stroke-linecap="butt" stroke-miterlimit="2" stroke-linejoin="miter" fill="none" stroke="#000000" d="M336.199 187.395H343.301V194.5H336.199Z"/>
<path stroke-width="1.5" stroke-linecap="butt" stroke-miterlimit="2" stroke-linejoin="miter" fill="none" stroke="#e36d44" d="M83.25 157.926 168.75 175.176 225.75 227.93 282.75 235.918 339.75 196.645"/>
<path d="M87.215 157.926C87.215 152.641 79.285 152.641 79.285 157.926 79.285 163.215 87.215 163.215 87.215 157.926ZM87.215 157.926" fill="#e36d44"/>
<path stroke-width=".375" stroke-linecap="butt" stroke-miterlimit="2" stroke-linejoin="miter" fill="none" stroke="#000000" d="M87.215 157.926C87.215 152.641 79.285 152.641 79.285 157.926 79.285 163.215 87.215 163.215 87.215 157.926ZM87.215 157.926"/>
<path d="M172.715 175.176C172.715 169.887 164.785 169.887 164.785 175.176 164.785 180.461 172.715 180.461 172.715 175.176ZM172.715 175.176" fill="#e36d44"/>
<path stroke-width=".375" stroke-linecap="butt" stroke-miterlimit="2" stroke-linejoin="miter" fill="none" stroke="#000000" d="M172.715 175.176C172.715 169.887 164.785 169.887 164.785 175.176 164.785 180.461 172.715 180.461 172.715 175.176ZM172.715 175.176"/>
<path d="M229.715 227.93C229.715 222.645 221.785 222.645 221.785 227.93 221.785 233.219 229.715 233.219 229.715 227.93ZM229.715 227.93" fill="#e36d44"/>
<path stroke-width=".375" stroke-linecap="butt" stroke-miterlimit="2" stroke-linejoin="miter" fill="none" stroke="#000000" d="M229.715 227.93C229.715 222.645 221.785 222.645 221.785 227.93 221.785 233.219 229.715 233.219 229.715 227.93ZM229.715 227.93"/>
<path d="M286.715 235.918C286.715 230.629 278.785 230.629 278.785 235.918 278.785 241.203 286.715 241.203 286.715 235.918ZM286.715 235.918" fill="#e36d44"/>
<path stroke-width=".375" stroke-linecap="butt" stroke-miterlimit="2" stroke-linejoin="miter" fill="none" stroke="#000000" d="M286.715 235.918C286.715 230.629 278.785 230.629 278.785 235.918 278.785 241.203 286.715 241.203 286.715 235.918ZM286.715 235.918"/>
<path d="M343.715 196.645C343.715 191.355 335.785 191.355 335.785 196.645 335.785 201.93 343.715 201.93 343.715 196.645ZM343.715 196.645" fill="#e36d44"/>
<path stroke-width=".375" stroke-linecap="butt" stroke-miterlimit="2" stroke-linejoin="miter" fill="none" stroke="#000000" d="M343.715 196.645C343.715 191.355 335.785 191.355 335.785 196.645 335.785 201.93 343.715 201.93 343.715 196.645ZM343.715 196.645"/>
<path stroke-width="1.5" stroke-linecap="butt" stroke-miterlimit="2" stroke-linejoin="miter" fill="none" stroke="#ccbb44" d="M83.25 157.926 168.75 164.84 225.75 207.145 282.75 161.195 339.75 155.473"/>
<path d="M79.699 154.375H86.800998V161.48H79.699Z" fill="#ccbb44"/>
<path stroke-width=".375" stroke-linecap="butt" stroke-miterlimit="2" stroke-linejoin="miter" fill="none" stroke="#000000" d="M79.699 154.375H86.800998V161.48H79.699Z"/>
<path d="M165.199 161.289H172.30101V168.391H165.199Z" fill="#ccbb44"/>
<path stroke-width=".375" stroke-linecap="butt" stroke-miterlimit="2" stroke-linejoin="miter" fill="none" stroke="#000000" d="M165.199 161.289H172.30101V168.391H165.199Z"/>
<path d="M222.199 203.594H229.30101V210.69899H222.199Z" fill="#ccbb44"/>
<path stroke-width=".375" stroke-linecap="butt" stroke-miterlimit="2" stroke-linejoin="miter" fill="none" stroke="#000000" d="M222.199 203.594H229.30101V210.69899H222.199Z"/>
<path d="M279.199 157.645H286.301V164.74701H279.199Z" fill="#ccbb44"/>
<path stroke-width=".375" stroke-linecap="butt" stroke-miterlimit="2" stroke-linejoin="miter" fill="none" stroke="#000000" d="M279.199 157.645H286.301V164.74701H279.199Z"/>
<path d="M336.199 151.922H343.301V159.027H336.199Z" fill="#ccbb44"/>
<path stroke-width=".375" stroke-linecap="butt" stroke-miterlimit="2" stroke-linejoin="miter" fill="none" stroke="#000000" d="M336.199 151.922H343.301V159.027H336.199Z"/>
<path stroke-width="1.5" stroke-linecap="butt" stroke-miterlimit="2" stroke-linejoin="miter" fill="none" stroke="#ccbb44" d="M83.25 157.926 168.75 181.363 225.75 173.16 282.75 147.809 339.75 133.148"/>
<path d="M87.215 157.926C87.215 152.641 79.285 152.641 79.285 157.926 79.285 163.215 87.215 163.215 87.215 157.926ZM87.215 157.926" fill="#ccbb44"/>
<path stroke-width=".375" stroke-linecap="butt" stroke-miterlimit="2" stroke-linejoin="miter" fill="none" stroke="#000000" d="M87.215 157.926C87.215 152.641 79.285 152.641 79.285 157.926 79.285 163.215 87.215 163.215 87.215 157.926ZM87.215 157.926"/>
<path d="M172.715 181.363C172.715 176.074 164.785 176.074 164.785 181.363 164.785 186.648 172.715 186.648 172.715 181.363ZM172.715 181.363" fill="#ccbb44"/>
<path stroke-width=".375" stroke-linecap="butt" stroke-miterlimit="2" stroke-linejoin="miter" fill="none" stroke="#000000" d="M172.715 181.363C172.715 176.074 164.785 176.074 164.785 181.363 164.785 186.648 172.715 186.648 172.715 181.363ZM172.715 181.363"/>
<path d="M229.715 173.16C229.715 167.871 221.785 167.871 221.785 173.16 221.785 178.449 229.715 178.449 229.715 173.16ZM229.715 173.16" fill="#ccbb44"/>
<path stroke-width=".375" stroke-linecap="butt" stroke-miterlimit="2" stroke-linejoin="miter" fill="none" stroke="#000000" d="M229.715 173.16C229.715 167.871 221.785 167.871 221.785 173.16 221.785 178.449 229.715 178.449 229.715 173.16ZM229.715 173.16"/>
<path d="M286.715 147.809C286.715 142.523 278.785 142.523 278.785 147.809 278.785 153.098 286.715 153.098 286.715 147.809ZM286.715 147.809" fill="#ccbb44"/>
<path stroke-width=".375" stroke-linecap="butt" stroke-miterlimit="2" stroke-linejoin="miter" fill="none" stroke="#000000" d="M286.715 147.809C286.715 142.523 278.785 142.523 278.785 147.809 278.785 153.098 286.715 153.098 286.715 147.809ZM286.715 147.809"/>
<path d="M343.715 133.148C343.715 127.863 335.785 127.863 335.785 133.148 335.785 138.438 343.715 138.438 343.715 133.148ZM343.715 133.148" fill="#ccbb44"/>
<path stroke-width=".375" stroke-linecap="butt" stroke-miterlimit="2" stroke-linejoin="miter" fill="none" stroke="#000000" d="M343.715 133.148C343.715 127.863 335.785 127.863 335.785 133.148 335.785 138.438 343.715 138.438 343.715 133.148ZM343.715 133.148"/>
<text xml:space="preserve" transform="matrix(1 0 0 1.0000001 0 0)" font-size="14.999999" font-family="NewCM10" font-weight="bold"><tspan y="64.59" x="57.75 64.455 72.84 79.545 85.29 98.235 111.75 121.335">(a) RKSG</tspan></text>
<text xml:space="preserve" transform="matrix(1 0 0 .99999997 0 0)" font-size="15.000001" font-family="NewCMMath"><tspan y="285.84004" x="564.315">&#x0394;</tspan></text>
<text xml:space="preserve" transform="matrix(1 0 0 .99999997 0 0)" font-size="15.000001" font-family="NewCM10" font-style="italic"><tspan y="285.84004" x="576.81">s</tspan></text>
<text xml:space="preserve" transform="matrix(1 0 0 .99999997 0 0)" font-size="15.000001" font-family="NewCMMath"><tspan y="285.84004" x="582.945">.</tspan></text>
<text xml:space="preserve" transform="matrix(1 0 0 .99999997 0 0)" font-size="15.000001" font-family="NewCM10" font-style="italic"><tspan y="285.84004" x="587.115">c</tspan></text>
<text xml:space="preserve" transform="matrix(1 0 0 .99999997 0 0)" font-size="15.000001" font-family="NewCMMath"><tspan y="285.84004" x="594.015">.</tspan><tspan y="268.59004" x="443.14283 487.93284 532.7078 577.4978 622.2878 663.3214 670.8214 708.1114 715.6114">024681012</tspan></text>
<text xml:space="preserve" transform="matrix(.00000005960467 -1 1.0000001 .00000005960467 0 0)" font-size="14.999999" font-family="NewCM10" font-style="italic"><tspan y="393.02998" x="-186.29247">t</tspan></text>
<text xml:space="preserve" transform="matrix(.00000005960467 -1 1.0000001 .00000005960467 0 0)" font-size="14.999999" font-family="NewCMMath"><tspan y="393.02998" x="-181.31247">.</tspan></text>
<text xml:space="preserve" transform="matrix(.00000005960467 -1 1.0000001 .00000005960467 0 0)" font-size="14.999999" font-family="NewCM10" font-style="italic"><tspan y="393.02998" x="-177.14247">c</tspan></text>
<text xml:space="preserve" transform="matrix(.00000005960467 -1 1.0000001 .00000005960467 0 0)" font-size="14.999999" font-family="NewCMMath"><tspan y="393.02998" x="-170.24246 -166.07247 -161.09247 -155.25748 -145.46247 -141.29247 -133.79248 -125.452487 -119.54248">. (Flops)</tspan></text>
<text xml:space="preserve" transform="matrix(1 0 0 .99999997 0 0)" font-size="15.000001" font-family="NewCMMath"><tspan y="255.90453" x="400.50004">2</tspan></text>
<text xml:space="preserve" transform="matrix(1 0 0 1 0 0)" font-size="9" font-family="NewCMMath"><tspan y="249.4395" x="408.00004 412.50004">25</tspan></text>
<text xml:space="preserve" transform="matrix(1 0 0 .99999997 0 0)" font-size="15.000001" font-family="NewCMMath"><tspan y="155.40453" x="400.50004">2</tspan></text>
<text xml:space="preserve" transform="matrix(1 0 0 1 0 0)" font-size="9" font-family="NewCMMath"><tspan y="148.9395" x="408.00004 412.50004">30</tspan></text>
<text xml:space="preserve" transform="matrix(1 0 0 .99999997 0 0)" font-size="15.000001" font-family="NewCMMath"><tspan y="54.904516" x="400.50004">2</tspan></text>
<text xml:space="preserve" transform="matrix(1 0 0 1 0 0)" font-size="9" font-family="NewCMMath"><tspan y="48.439508" x="408.00004 412.50004">35</tspan></text>
<path stroke-width="1.5" stroke-linecap="butt" stroke-miterlimit="2" stroke-linejoin="miter" fill="none" stroke="#e36d44" d="M446.895 135.465 491.68 144.957 536.465 147.32 581.25 137.039 626.035 158.355 670.82 168.18 715.605 171.637"/>
<path d="M443.34 131.91H450.445V139.015H443.34Z" fill="#e36d44"/>
<path stroke-width=".375" stroke-linecap="butt" stroke-miterlimit="2" stroke-linejoin="miter" fill="none" stroke="#000000" d="M443.34 131.91H450.445V139.015H443.34Z"/>
<path d="M488.125 141.402H495.23V148.50699H488.125Z" fill="#e36d44"/>
<path stroke-width=".375" stroke-linecap="butt" stroke-miterlimit="2" stroke-linejoin="miter" fill="none" stroke="#000000" d="M488.125 141.402H495.23V148.50699H488.125Z"/>
<path d="M532.914 143.77H540.016V150.875H532.914Z" fill="#e36d44"/>
<path stroke-width=".375" stroke-linecap="butt" stroke-miterlimit="2" stroke-linejoin="miter" fill="none" stroke="#000000" d="M532.914 143.77H540.016V150.875H532.914Z"/>
<path d="M577.699 133.484H584.80099V140.58899H577.699Z" fill="#e36d44"/>
<path stroke-width=".375" stroke-linecap="butt" stroke-miterlimit="2" stroke-linejoin="miter" fill="none" stroke="#000000" d="M577.699 133.484H584.80099V140.58899H577.699Z"/>
<path d="M622.484 154.801H629.586V161.90599H622.484Z" fill="#e36d44"/>
<path stroke-width=".375" stroke-linecap="butt" stroke-miterlimit="2" stroke-linejoin="miter" fill="none" stroke="#000000" d="M622.484 154.801H629.586V161.90599H622.484Z"/>
<path d="M667.27 164.629H674.375V171.734H667.27Z" fill="#e36d44"/>
<path stroke-width=".375" stroke-linecap="butt" stroke-miterlimit="2" stroke-linejoin="miter" fill="none" stroke="#000000" d="M667.27 164.629H674.375V171.734H667.27Z"/>
<path d="M712.055 168.086H719.16V175.188H712.055Z" fill="#e36d44"/>
<path stroke-width=".375" stroke-linecap="butt" stroke-miterlimit="2" stroke-linejoin="miter" fill="none" stroke="#000000" d="M712.055 168.086H719.16V175.188H712.055Z"/>
<path stroke-width="1.5" stroke-linecap="butt" stroke-miterlimit="2" stroke-linejoin="miter" fill="none" stroke="#e36d44" d="M446.895 135.465 491.68 150.062 536.465 140.008 581.25 169.816 626.035 169.598 670.82 194.141 715.605 200.074"/>
<path d="M450.859 135.465C450.859 130.176 442.926 130.176 442.926 135.465 442.926 140.75 450.859 140.75 450.859 135.465ZM450.859 135.465" fill="#e36d44"/>
<path stroke-width=".375" stroke-linecap="butt" stroke-miterlimit="2" stroke-linejoin="miter" fill="none" stroke="#000000" d="M450.859 135.465C450.859 130.176 442.926 130.176 442.926 135.465 442.926 140.75 450.859 140.75 450.859 135.465ZM450.859 135.465"/>
<path d="M495.645 150.062C495.645 144.777 487.715 144.777 487.715 150.062 487.715 155.352 495.645 155.352 495.645 150.062ZM495.645 150.062" fill="#e36d44"/>
<path stroke-width=".375" stroke-linecap="butt" stroke-miterlimit="2" stroke-linejoin="miter" fill="none" stroke="#000000" d="M495.645 150.062C495.645 144.777 487.715 144.777 487.715 150.062 487.715 155.352 495.645 155.352 495.645 150.062ZM495.645 150.062"/>
<path d="M540.43 140.008C540.43 134.723 532.5 134.723 532.5 140.008 532.5 145.297 540.43 145.297 540.43 140.008ZM540.43 140.008" fill="#e36d44"/>
<path stroke-width=".375" stroke-linecap="butt" stroke-miterlimit="2" stroke-linejoin="miter" fill="none" stroke="#000000" d="M540.43 140.008C540.43 134.723 532.5 134.723 532.5 140.008 532.5 145.297 540.43 145.297 540.43 140.008ZM540.43 140.008"/>
<path d="M585.215 169.816C585.215 164.527 577.285 164.527 577.285 169.816 577.285 175.102 585.215 175.102 585.215 169.816ZM585.215 169.816" fill="#e36d44"/>
<path stroke-width=".375" stroke-linecap="butt" stroke-miterlimit="2" stroke-linejoin="miter" fill="none" stroke="#000000" d="M585.215 169.816C585.215 164.527 577.285 164.527 577.285 169.816 577.285 175.102 585.215 175.102 585.215 169.816ZM585.215 169.816"/>
<path d="M630 169.598C630 164.312 622.07 164.312 622.07 169.598 622.07 174.887 630 174.887 630 169.598ZM630 169.598" fill="#e36d44"/>
<path stroke-width=".375" stroke-linecap="butt" stroke-miterlimit="2" stroke-linejoin="miter" fill="none" stroke="#000000" d="M630 169.598C630 164.312 622.07 164.312 622.07 169.598 622.07 174.887 630 174.887 630 169.598ZM630 169.598"/>
<path d="M674.785 194.141C674.785 188.852 666.855 188.852 666.855 194.141 666.855 199.426 674.785 199.426 674.785 194.141ZM674.785 194.141" fill="#e36d44"/>
<path stroke-width=".375" stroke-linecap="butt" stroke-miterlimit="2" stroke-linejoin="miter" fill="none" stroke="#000000" d="M674.785 194.141C674.785 188.852 666.855 188.852 666.855 194.141 666.855 199.426 674.785 199.426 674.785 194.141ZM674.785 194.141"/>
<path d="M719.574 200.074C719.574 194.789 711.641 194.789 711.641 200.074 711.641 205.363 719.574 205.363 719.574 200.074ZM719.574 200.074" fill="#e36d44"/>
<path stroke-width=".375" stroke-linecap="butt" stroke-miterlimit="2" stroke-linejoin="miter" fill="none" stroke="#000000" d="M719.574 200.074C719.574 194.789 711.641 194.789 711.641 200.074 711.641 205.363 719.574 205.363 719.574 200.074ZM719.574 200.074"/>
<path stroke-width="1.5" stroke-linecap="butt" stroke-miterlimit="2" stroke-linejoin="miter" fill="none" stroke="#ccbb44" d="M446.895 135.465 491.68 134.941 536.465 134.184 581.25 124.379 626.035 107.918 670.82 110.578 715.605 91.891"/>
<path d="M443.34 131.91H450.445V139.015H443.34Z" fill="#ccbb44"/>
<path stroke-width=".375" stroke-linecap="butt" stroke-miterlimit="2" stroke-linejoin="miter" fill="none" stroke="#000000" d="M443.34 131.91H450.445V139.015H443.34Z"/>
<path d="M488.125 131.387H495.23V138.49199H488.125Z" fill="#ccbb44"/>
<path stroke-width=".375" stroke-linecap="butt" stroke-miterlimit="2" stroke-linejoin="miter" fill="none" stroke="#000000" d="M488.125 131.387H495.23V138.49199H488.125Z"/>
<path d="M532.914 130.633H540.016V137.735H532.914Z" fill="#ccbb44"/>
<path stroke-width=".375" stroke-linecap="butt" stroke-miterlimit="2" stroke-linejoin="miter" fill="none" stroke="#000000" d="M532.914 130.633H540.016V137.735H532.914Z"/>
<path d="M577.699 120.824H584.80099V127.929H577.699Z" fill="#ccbb44"/>
<path stroke-width=".375" stroke-linecap="butt" stroke-miterlimit="2" stroke-linejoin="miter" fill="none" stroke="#000000" d="M577.699 120.824H584.80099V127.929H577.699Z"/>
<path d="M622.484 104.363H629.586V111.468H622.484Z" fill="#ccbb44"/>
<path stroke-width=".375" stroke-linecap="butt" stroke-miterlimit="2" stroke-linejoin="miter" fill="none" stroke="#000000" d="M622.484 104.363H629.586V111.468H622.484Z"/>
<path d="M667.27 107.027H674.375V114.129H667.27Z" fill="#ccbb44"/>
<path stroke-width=".375" stroke-linecap="butt" stroke-miterlimit="2" stroke-linejoin="miter" fill="none" stroke="#000000" d="M667.27 107.027H674.375V114.129H667.27Z"/>
<path d="M712.055 88.34H719.16V95.445H712.055Z" fill="#ccbb44"/>
<path stroke-width=".375" stroke-linecap="butt" stroke-miterlimit="2" stroke-linejoin="miter" fill="none" stroke="#000000" d="M712.055 88.34H719.16V95.445H712.055Z"/>
<path stroke-width="1.5" stroke-linecap="butt" stroke-miterlimit="2" stroke-linejoin="miter" fill="none" stroke="#ccbb44" d="M446.895 135.465 491.68 131.082 536.465 124.891 581.25 134.531 626.035 126.027 670.82 119.816 715.605 108.605"/>
<path d="M450.859 135.465C450.859 130.176 442.926 130.176 442.926 135.465 442.926 140.75 450.859 140.75 450.859 135.465ZM450.859 135.465" fill="#ccbb44"/>
<path stroke-width=".375" stroke-linecap="butt" stroke-miterlimit="2" stroke-linejoin="miter" fill="none" stroke="#000000" d="M450.859 135.465C450.859 130.176 442.926 130.176 442.926 135.465 442.926 140.75 450.859 140.75 450.859 135.465ZM450.859 135.465"/>
<path d="M495.645 131.082C495.645 125.793 487.715 125.793 487.715 131.082 487.715 136.371 495.645 136.371 495.645 131.082ZM495.645 131.082" fill="#ccbb44"/>
<path stroke-width=".375" stroke-linecap="butt" stroke-miterlimit="2" stroke-linejoin="miter" fill="none" stroke="#000000" d="M495.645 131.082C495.645 125.793 487.715 125.793 487.715 131.082 487.715 136.371 495.645 136.371 495.645 131.082ZM495.645 131.082"/>
<path d="M540.43 124.891C540.43 119.605 532.5 119.605 532.5 124.891 532.5 130.18 540.43 130.18 540.43 124.891ZM540.43 124.891" fill="#ccbb44"/>
<path stroke-width=".375" stroke-linecap="butt" stroke-miterlimit="2" stroke-linejoin="miter" fill="none" stroke="#000000" d="M540.43 124.891C540.43 119.605 532.5 119.605 532.5 124.891 532.5 130.18 540.43 130.18 540.43 124.891ZM540.43 124.891"/>
<path d="M585.215 134.531C585.215 129.246 577.285 129.246 577.285 134.531 577.285 139.82 585.215 139.82 585.215 134.531ZM585.215 134.531" fill="#ccbb44"/>
<path stroke-width=".375" stroke-linecap="butt" stroke-miterlimit="2" stroke-linejoin="miter" fill="none" stroke="#000000" d="M585.215 134.531C585.215 129.246 577.285 129.246 577.285 134.531 577.285 139.82 585.215 139.82 585.215 134.531ZM585.215 134.531"/>
<path d="M630 126.027C630 120.738 622.07 120.738 622.07 126.027 622.07 131.316 630 131.316 630 126.027ZM630 126.027" fill="#ccbb44"/>
<path stroke-width=".375" stroke-linecap="butt" stroke-miterlimit="2" stroke-linejoin="miter" fill="none" stroke="#000000" d="M630 126.027C630 120.738 622.07 120.738 622.07 126.027 622.07 131.316 630 131.316 630 126.027ZM630 126.027"/>
<path d="M674.785 119.816C674.785 114.527 666.855 114.527 666.855 119.816 666.855 125.105 674.785 125.105 674.785 119.816ZM674.785 119.816" fill="#ccbb44"/>
<path stroke-width=".375" stroke-linecap="butt" stroke-miterlimit="2" stroke-linejoin="miter" fill="none" stroke="#000000" d="M674.785 119.816C674.785 114.527 666.855 114.527 666.855 119.816 666.855 125.105 674.785 125.105 674.785 119.816ZM674.785 119.816"/>
<path d="M719.574 108.605C719.574 103.316 711.641 103.316 711.641 108.605 711.641 113.891 719.574 113.891 719.574 108.605ZM719.574 108.605" fill="#ccbb44"/>
<path stroke-width=".375" stroke-linecap="butt" stroke-miterlimit="2" stroke-linejoin="miter" fill="none" stroke="#000000" d="M719.574 108.605C719.574 103.316 711.641 103.316 711.641 108.605 711.641 113.891 719.574 113.891 719.574 108.605ZM719.574 108.605"/>
<text xml:space="preserve" transform="matrix(1 0 0 1.0000001 0 0)" font-size="14.999999" font-family="NewCM10" font-weight="bold"><tspan y="64.59" x="427.5 434.205 443.78999 450.49497 456.23997 469.185 482.13">(b) RRG</tspan></text>
<path d="M213.75 12H579V36H213.75Z" fill="#ffffff"/>
<path stroke-width=".75" stroke-linecap="butt" stroke-miterlimit="2" stroke-linejoin="miter" fill="none" stroke="#000000" d="M213.75 12H579V36H213.75Z"/>
<path stroke-width=".75" stroke-linecap="butt" stroke-miterlimit="1.154701" stroke-linejoin="miter" fill="none" stroke="#000000" d="M83.25 250.875V254.625"/>
<path stroke-width=".75" stroke-linecap="butt" stroke-miterlimit="1.154701" stroke-linejoin="miter" fill="none" stroke="#000000" d="M140.25 250.875V254.625"/>
<path stroke-width=".75" stroke-linecap="butt" stroke-miterlimit="1.154701" stroke-linejoin="miter" fill="none" stroke="#000000" d="M197.25 250.875V254.625"/>
<path stroke-width=".75" stroke-linecap="butt" stroke-miterlimit="1.154701" stroke-linejoin="miter" fill="none" stroke="#000000" d="M254.25 250.875V254.625"/>
<path stroke-width=".75" stroke-linecap="butt" stroke-miterlimit="1.154701" stroke-linejoin="miter" fill="none" stroke="#000000" d="M311.25 250.875V254.625"/>
<path stroke-width=".75" stroke-linecap="butt" stroke-miterlimit="1.154701" stroke-linejoin="miter" fill="none" stroke="#000000" d="M368.25 250.875V254.625"/>
<path stroke-width=".75" stroke-linecap="butt" stroke-miterlimit="1.154701" stroke-linejoin="miter" fill="none" stroke="#000000" d="M54.375 250.5H50.625"/>
<path stroke-width=".75" stroke-linecap="butt" stroke-miterlimit="1.154701" stroke-linejoin="miter" fill="none" stroke="#000000" d="M54.375 150H50.625"/>
<path stroke-width=".75" stroke-linecap="butt" stroke-miterlimit="1.154701" stroke-linejoin="miter" fill="none" stroke="#000000" d="M54.375 49.5H50.625"/>
<path stroke-width=".75" stroke-linecap="butt" stroke-miterlimit="1.154701" stroke-linejoin="miter" fill="none" stroke="#000000" d="M446.895 250.875V254.625"/>
<path stroke-width=".75" stroke-linecap="butt" stroke-miterlimit="1.154701" stroke-linejoin="miter" fill="none" stroke="#000000" d="M491.68 250.875V254.625"/>
<path stroke-width=".75" stroke-linecap="butt" stroke-miterlimit="1.154701" stroke-linejoin="miter" fill="none" stroke="#000000" d="M536.465 250.875V254.625"/>
<path stroke-width=".75" stroke-linecap="butt" stroke-miterlimit="1.154701" stroke-linejoin="miter" fill="none" stroke="#000000" d="M581.25 250.875V254.625"/>
<path stroke-width=".75" stroke-linecap="butt" stroke-miterlimit="1.154701" stroke-linejoin="miter" fill="none" stroke="#000000" d="M626.035 250.875V254.625"/>
<path stroke-width=".75" stroke-linecap="butt" stroke-miterlimit="1.154701" stroke-linejoin="miter" fill="none" stroke="#000000" d="M670.82 250.875V254.625"/>
<path stroke-width=".75" stroke-linecap="butt" stroke-miterlimit="1.154701" stroke-linejoin="miter" fill="none" stroke="#000000" d="M715.605 250.875V254.625"/>
<path stroke-width=".75" stroke-linecap="butt" stroke-miterlimit="1.154701" stroke-linejoin="miter" fill="none" stroke="#000000" d="M424.125 250.5H420.375"/>
<path stroke-width=".75" stroke-linecap="butt" stroke-miterlimit="1.154701" stroke-linejoin="miter" fill="none" stroke="#000000" d="M424.125 150H420.375"/>
<path stroke-width=".75" stroke-linecap="butt" stroke-miterlimit="1.154701" stroke-linejoin="miter" fill="none" stroke="#000000" d="M424.125 49.5H420.375"/>
<path stroke-width="1.5" stroke-linecap="butt" stroke-miterlimit="2" stroke-linejoin="miter" fill="none" stroke="#e36d44" d="M218.395 24H233.395"/>
<path d="M222.344 20.449H229.44899V27.550999H222.344Z" fill="#e36d44"/>
<path stroke-width=".375" stroke-linecap="butt" stroke-miterlimit="2" stroke-linejoin="miter" fill="none" stroke="#000000" d="M222.344 20.449H229.44899V27.550999H222.344Z"/>
<path stroke-width="1.5" stroke-linecap="butt" stroke-miterlimit="2" stroke-linejoin="miter" fill="none" stroke="#e36d44" d="M301.445 24H316.445"/>
<path d="M312.91 24C312.91 18.711 304.977 18.711 304.977 24 304.977 29.289 312.91 29.289 312.91 24ZM312.91 24" fill="#e36d44"/>
<path stroke-width=".375" stroke-linecap="butt" stroke-miterlimit="2" stroke-linejoin="miter" fill="none" stroke="#000000" d="M312.91 24C312.91 18.711 304.977 18.711 304.977 24 304.977 29.289 312.91 29.289 312.91 24ZM312.91 24"/>
<path stroke-width="1.5" stroke-linecap="butt" stroke-miterlimit="2" stroke-linejoin="miter" fill="none" stroke="#ccbb44" d="M390.746 24H405.746"/>
<path d="M394.695 20.449H401.797V27.550999H394.695Z" fill="#ccbb44"/>
<path stroke-width=".375" stroke-linecap="butt" stroke-miterlimit="2" stroke-linejoin="miter" fill="none" stroke="#000000" d="M394.695 20.449H401.797V27.550999H394.695Z"/>
<path stroke-width="1.5" stroke-linecap="butt" stroke-miterlimit="2" stroke-linejoin="miter" fill="none" stroke="#ccbb44" d="M486.922 24H501.922"/>
<path d="M498.387 24C498.387 18.711 490.457 18.711 490.457 24 490.457 29.289 498.387 29.289 498.387 24ZM498.387 24" fill="#ccbb44"/>
<path stroke-width=".375" stroke-linecap="butt" stroke-miterlimit="2" stroke-linejoin="miter" fill="none" stroke="#000000" d="M498.387 24C498.387 18.711 490.457 18.711 490.457 24 490.457 29.289 498.387 29.289 498.387 24ZM498.387 24"/>
<text xml:space="preserve" transform="matrix(1.0000001 0 0 1 0 0)" font-size="11.25" font-family="TeXGyreHerosMakieRegular"><tspan y="28.100632" x="237.14623 245.26873 253.39122 256.5187 259.6462 262.5712 270.6937 273.61869 280.1887 320.1937 328.3162 336.4387 339.5662 342.6937 345.61869 353.74119 356.66618 363.23619 369.49119 409.49617 417.61866 420.11616 423.8624 430.1174 435.7424 438.8699 441.9974 445.1249 448.0499 456.1724 459.09739 465.6674 505.6724 513.7949 516.2924 520.0387 526.2937 531.9187 535.0462 538.1737 541.3012 544.2262 552.3487 555.2737 561.8437 568.0987">NU: |R|=5NU: |R|=20Direct: |R|=5Direct: |R|=20</tspan></text>
<path stroke-width=".75" stroke-linecap="butt" stroke-miterlimit="1.154701" stroke-linejoin="miter" fill="none" stroke="#000000" d="M54.375 250.5H368.625"/>
<path stroke-width=".75" stroke-linecap="butt" stroke-miterlimit="1.154701" stroke-linejoin="miter" fill="none" stroke="#000000" d="M54.75 250.875V49.125"/>
<path stroke-width=".75" stroke-linecap="butt" stroke-miterlimit="1.154701" stroke-linejoin="miter" fill="none" stroke="#000000" d="M54.375 49.5H368.625"/>
<path stroke-width=".75" stroke-linecap="butt" stroke-miterlimit="1.154701" stroke-linejoin="miter" fill="none" stroke="#000000" d="M368.25 250.875V49.125"/>
<path stroke-width=".75" stroke-linecap="butt" stroke-miterlimit="1.154701" stroke-linejoin="miter" fill="none" stroke="#000000" d="M424.125 250.5H738.375"/>
<path stroke-width=".75" stroke-linecap="butt" stroke-miterlimit="1.154701" stroke-linejoin="miter" fill="none" stroke="#000000" d="M424.5 250.875V49.125"/>
<path stroke-width=".75" stroke-linecap="butt" stroke-miterlimit="1.154701" stroke-linejoin="miter" fill="none" stroke="#000000" d="M424.125 49.5H738.375"/>
<path stroke-width=".75" stroke-linecap="butt" stroke-miterlimit="1.154701" stroke-linejoin="miter" fill="none" stroke="#000000" d="M738 250.875V49.125"/>
</g>
</svg>
